# xmcd
#
# Track frame offsets: 
#        150
#        18717
#        34592
#        53590
#        74843
#        87809
#        112487
#        129936
#        144454
#        160806
#        183223
#        202857
#        226653
#
# Disc length: 3346 seconds
#
# Revision: 0
# Processed by: cddbd v1.5.2PL0 Copyright (c) Steve Scherf et al.
# Submitted via: ExactAudioCopyFreeDBPlugin 1.0
#
DISCID=ab0d100d
DTITLE=Holly Renee Allen - Red Dirt Soul
DYEAR=2011
DGENRE=Country
TTITLE0=Red Dirt Soul
TTITLE1=Living Out Loud
TTITLE2=First Time Love Kind Of Thing
TTITLE3=Skinny Girl
TTITLE4=Fresh Ink
TTITLE5=Miss Christine
TTITLE6=Lorelee
TTITLE7=Long Time Gone
TTITLE8=Taste Of The First Kiss
TTITLE9=Let Love
TTITLE10=Old Flames
TTITLE11=The Way
TTITLE12=The Last One Left
EXTD=
EXTT0=
EXTT1=
EXTT2=
EXTT3=
EXTT4=
EXTT5=
EXTT6=
EXTT7=
EXTT8=
EXTT9=
EXTT10=
EXTT11=
EXTT12=
PLAYORDER=
